<?xml version="1.0" encoding="UTF-8" standalone="no"?>
<svg
   xmlns:sketch="http://www.bohemiancoding.com/sketch/ns"
   xmlns:dc="http://purl.org/dc/elements/1.1/"
   xmlns:cc="http://creativecommons.org/ns#"
   xmlns:rdf="http://www.w3.org/1999/02/22-rdf-syntax-ns#"
   xmlns:svg="http://www.w3.org/2000/svg"
   xmlns="http://www.w3.org/2000/svg"
   xmlns:sodipodi="http://sodipodi.sourceforge.net/DTD/sodipodi-0.dtd"
   xmlns:inkscape="http://www.inkscape.org/namespaces/inkscape"
   width="350"
   height="191"
   viewBox="0 0 350 191"
   version="1.1"
   id="svg3019"
   inkscape:version="0.91 r13725"
   sodipodi:docname="PointCRM_03.svg"
   inkscape:export-filename="D:\Temp\comtronic-logo-a1.png"
   inkscape:export-xdpi="175.91008"
   inkscape:export-ydpi="175.91008">
  <metadata
     id="metadata3051">
    <rdf:RDF>
      <cc:Work
         rdf:about="">
        <dc:format>image/svg+xml</dc:format>
        <dc:type
           rdf:resource="http://purl.org/dc/dcmitype/StillImage" />
        <dc:title>comtronic-logo</dc:title>
      </cc:Work>
    </rdf:RDF>
  </metadata>
  <sodipodi:namedview
     pagecolor="#ffffff"
     bordercolor="#666666"
     borderopacity="1"
     objecttolerance="10"
     gridtolerance="10"
     guidetolerance="10"
     inkscape:pageopacity="0"
     inkscape:pageshadow="2"
     inkscape:window-width="1920"
     inkscape:window-height="1030"
     id="namedview3049"
     showgrid="false"
     inkscape:zoom="2"
     inkscape:cx="323.28214"
     inkscape:cy="95.5"
     inkscape:window-x="-8"
     inkscape:window-y="-8"
     inkscape:window-maximized="1"
     inkscape:current-layer="svg3019"
     inkscape:showpageshadow="false" />
  <title
     id="title3021">comtronic-logo</title>
  <description
     id="description3023">Created with Sketch (http://www.bohemiancoding.com/sketch)</description>
  <defs
     id="defs3025" />
  <rect
     style="fill:#0000ff;fill-opacity:0;fill-rule:evenodd;stroke:none;stroke-width:1px;stroke-linecap:butt;stroke-linejoin:miter;stroke-opacity:1"
     id="rect3055"
     width="546.41553"
     height="125.18499"
     x="38.908848"
     y="15.064343" />
  <g
     id="g3464"
     transform="matrix(1.0059986,0,0,1.0291382,-142.34132,10.024063)">
    <path
       d="m 266.21673,97.139446 0,-17.55 -36.45,0 c -24.3775,0 -36.45,10.396179 -36.45,31.050014 0,10.68939 3.01813,18.47881 9.45,22.95 5.6408,5.58579 14.78802,8.1 27,8.1 l 36.45,0 0,-12.15 -36.45,0 c -15.89569,-0.25149 -23.8202,-6.45218 -24.3,-18.9 0.4798,-12.293591 8.40431,-18.463424 24.3,-18.900014 l 24.3,0 0,5.4 12.15,0 z"
       id="Path"
       sketch:type="MSShapeGroup"
       inkscape:connector-curvature="0"
       style="fill:#000000;fill-rule:evenodd;stroke:none;stroke-width:1" />
    <path
       d="m 422.29662,79.589446 c -1.86527,0.307584 -3.93662,2.429847 -5.4,6.75 l -20.25,39.150004 c -0.63891,0.57504 -1.04083,1.25171 -1.35,1.35 -0.12366,-0.0367 -0.27824,-0.25208 0,0 -0.64924,-0.86724 -0.89656,-1.3286 -1.35,-1.35 l -20.25,-39.150004 c -1.43245,-4.320153 -3.53471,-6.442416 -5.4,-6.75 l -2.7,0 c -4.64772,0 -6.75,2.429847 -6.75,6.75 l 0,55.350004 12.15,0 0,-35.1 13.5,24.3 4.05,6.75 c 1.80344,2.4506 4.12212,3.68091 6.75,4.05 2.87521,-0.24606 5.19389,-1.44561 6.75,-4.05 l 4.05,-6.75 13.5,-24.3 0,35.1 12.15,0 0,-55.350004 c 0,-4.320153 -2.07135,-6.75 -6.75,-6.75 l -2.7,0 z"
       id="path3043"
       sketch:type="MSShapeGroup"
       inkscape:connector-curvature="0"
       style="fill:#000000;fill-rule:evenodd;stroke:none;stroke-width:1" />
    <path
       d="m 276.89009,91.884463 0,-12.15 54,0 c 12.65501,0 18.9,5.390568 18.9,16.2 l 0,5.399997 c 0,10.31255 -6.24499,15.64153 -18.9,16.2 l -27,0 43.2,21.6 0,2.7 -20.25,0 -49.95,-25.65 0,-12.15 55.35,0 c 2.98856,0.37366 4.75075,-1.65936 5.4,-5.399997 -0.64925,-4.391541 -2.41144,-6.42456 -5.4,-6.75 l -55.35,0 z"
       id="path3039-1"
       sketch:type="MSShapeGroup"
       inkscape:connector-curvature="0"
       style="fill:#000000;fill-rule:evenodd;stroke:none;stroke-width:1" />
  </g>
  <g
     id="g3410"
     transform="translate(-150,0)">
    <g
       transform="translate(-1.6066992,0)"
       id="g3388">
      <path
         d="m 316.5675,47.354455 10,0 0,31 -10,0 0,-31 z"
         id="path3032"
         inkscape:connector-curvature="0"
         style="fill:#000000;fill-rule:evenodd;stroke:none;stroke-width:1" />
      <rect
         id="Path-copy"
         x="316.5675"
         y="32.354454"
         width="10"
         height="10"
         style="fill:#f2042b;fill-rule:evenodd;stroke:none;stroke-width:1" />
    </g>
    <path
       d="m 371.3217,74.354458 c 2.67177,2.44843 5.03052,3.8631 7,4 l 1,0 c 3.46566,0 5,-1.77974 5,-5 l 0,-41.000003 -9,0 0,31.000003 -33,-28.000003 c -0.82443,-1.243059 -1.82061,-1.836308 -3,-2 -0.69848,-0.65774 -1.55725,-0.90873 -2,-1 l -2,0 c -3.44276,0 -5,1.802561 -5,5 l 0,41.000003 9,0 0,-32.000003 32,28.000003 z"
       id="path3035"
       sketch:type="MSShapeGroup"
       inkscape:connector-curvature="0"
       style="fill:#000000;fill-rule:evenodd;stroke:none;stroke-width:1" />
    <path
       d="m 257.58432,55.756358 c 0,15.16674 8.98845,23 27,23 17.98863,-0.0465 27,-7.90299 27,-24 0,-15.189994 -9.05723,-23.000005 -27,-23.000005 -18.05741,0.09298 -27,7.926233 -27,24.000005 z m 44,-1 c 0,9.32174 -5.82186,14 -17,14 -12.15531,0 -18,-4.67826 -18,-14 0,-9.345023 5.84469,-14.000005 18,-14.000005 11.17814,0 17,4.654982 17,14.000005 z"
       id="path3037"
       sketch:type="MSShapeGroup"
       inkscape:connector-curvature="0"
       style="fill:#000000;fill-rule:evenodd;stroke:none;stroke-width:1" />
    <path
       d="m 388.17024,31.756353 0,9 22,0 0,37.000005 10,0 0,-37.000005 22,0 0,-9 -54,0 z"
       id="path3041"
       sketch:type="MSShapeGroup"
       inkscape:connector-curvature="0"
       style="fill:#000000;fill-rule:evenodd;stroke:none;stroke-width:1" />
    <path
       sodipodi:nodetypes="ccssscccccccccc"
       d="m 200.8302,42.059971 0,-9 40,0 c 9.37409,0 14,3.993016 14,12 l 0,4.000007 c 0,7.63893 -4.62591,11.58631 -14,12 l -29.80418,-0.44859 -0.16774,18.96047 c -3.37321,0.11272 -6.74714,0.0756 -10.12137,0.0605 l 0.0933,-19.57244 0,-9 41,0 c 2.21375,0.27678 3.51908,-1.22915 4,-4.00001 -0.48092,-3.252988 -1.78625,-4.758926 -4,-4.999997 z"
       id="path3039-9"
       sketch:type="MSShapeGroup"
       inkscape:connector-curvature="0"
       style="fill:#000000;fill-rule:evenodd;stroke:none;stroke-width:1" />
    <rect
       style="fill:#f2042b;fill-rule:evenodd;stroke:none;stroke-width:1"
       height="10"
       width="10"
       y="67"
       x="433.39331"
       id="Path-copy-2" />
  </g>
</svg>
